<?xml version="1.0" encoding="UTF-8"?>
<svg id="Layer_2" data-name="Layer 2" xmlns="http://www.w3.org/2000/svg" xmlns:xlink="http://www.w3.org/1999/xlink" viewBox="0 0 130.22 56.96">
  <defs>
    <style>
      .cls-1 {
        fill: url(#linear-gradient-2);
      }

      .cls-2 {
        fill: url(#linear-gradient-4);
      }

      .cls-3 {
        fill: url(#linear-gradient-3);
      }

      .cls-4 {
        fill: url(#linear-gradient-5);
      }

      .cls-5 {
        fill: url(#linear-gradient);
      }
    </style>
    <linearGradient id="linear-gradient" x1="129.96" y1="13.83" x2="98.69" y2="45.09" gradientUnits="userSpaceOnUse">
      <stop offset="0" stop-color="#6136ae"/>
      <stop offset="0" stop-color="#6136ae"/>
      <stop offset="0" stop-color="#6336af"/>
      <stop offset=".22" stop-color="#5f37ad"/>
      <stop offset=".42" stop-color="#543caa"/>
      <stop offset=".6" stop-color="#4244a5"/>
      <stop offset=".79" stop-color="#28509d"/>
      <stop offset=".97" stop-color="#075f94"/>
      <stop offset="1" stop-color="#006392"/>
    </linearGradient>
    <linearGradient id="linear-gradient-2" x1="106.54" y1="34.64" x2="108.91" y2="32.28" gradientTransform="translate(6.11 82.43) rotate(-42.99)" gradientUnits="userSpaceOnUse">
      <stop offset="0" stop-color="#6336af"/>
      <stop offset="1" stop-color="#2e3192"/>
    </linearGradient>
    <linearGradient id="linear-gradient-3" x1="113.25" y1="38.52" x2="115.61" y2="36.16" gradientTransform="translate(5.26 88.04) rotate(-42.99)" xlink:href="#linear-gradient-2"/>
    <linearGradient id="linear-gradient-4" x1="98.88" y1="37.01" x2="101.24" y2="34.65" gradientTransform="translate(2.43 77.85) rotate(-42.99)" xlink:href="#linear-gradient-2"/>
    <linearGradient id="linear-gradient-5" x1="104.09" y1="42.29" x2="106.45" y2="39.93" gradientTransform="translate(.23 82.81) rotate(-42.99)" xlink:href="#linear-gradient-2"/>
  </defs>
  <path class="cls-5" d="M108.16,13.65h21.31c.42,0,.76.34.76.76v21.33c0,.63-.29,1.23-.82,1.57-.67.43-2.71,1-4.07.82,0,0-.57.1-2.52-2.04,0,0-.52-.43-1.38.48l-6.75,6.75s-1.2.04-1.09-1.33l12.88-12.88s.36-1.54-1.31-1.31l-7.53,7.3s-.99.11-1.07-1.07l4.3-4.54s.38-1.57-1.4-1.4l-10.62,10.51s-1.18.29-1.16-1.16l15.98-15.89s.81-.52,1.9.86v-3.94l-4.23-.1.9,1.09s.1.81-.43,1.19l-10.6,10.6s-1.36.03-1.35-1.36l5.55-5.55s.27-1.79-1.37-1.38l-10.63,10.63s-1.25.13-1.19-1.33l13.95-13.95s.31-1.31-1.31-1.31l-21.81,21.81s-1.29.24-1.28-1.33l15.73-15.73s.62-.52-.38-1.52l-.64-.64c-.42-.42-.79-1.25-.82-1.84-.04-.8,0-1.89.39-2.78.36-.81,1.21-1.3,2.1-1.3Z"/>
  <rect class="cls-1" x="106.87" y="31.81" width="1.71" height="3.31" rx=".47" ry=".47" transform="translate(51.74 -64.47) rotate(42.99)"/>
  <rect class="cls-3" x="113.57" y="35.69" width="1.71" height="3.31" rx=".47" ry=".47" transform="translate(56.18 -67.99) rotate(42.99)"/>
  <rect class="cls-2" x="99.21" y="34.18" width="1.71" height="3.31" rx=".47" ry=".47" transform="translate(51.3 -58.6) rotate(42.99)"/>
  <rect class="cls-4" x="104.41" y="39.45" width="1.71" height="3.31" rx=".47" ry=".47" transform="translate(56.29 -60.74) rotate(42.99)"/>
</svg>